<?xml version="1.0" encoding="UTF-8" standalone="no"?>
<svg
   xmlns:dc="http://purl.org/dc/elements/1.1/"
   xmlns:cc="http://creativecommons.org/ns#"
   xmlns:rdf="http://www.w3.org/1999/02/22-rdf-syntax-ns#"
   xmlns:svg="http://www.w3.org/2000/svg"
   xmlns="http://www.w3.org/2000/svg"
   xmlns:sodipodi="http://sodipodi.sourceforge.net/DTD/sodipodi-0.dtd"
   xmlns:inkscape="http://www.inkscape.org/namespaces/inkscape"
   id="emoji"
   viewBox="0 0 72 72"
   version="1.1"
   sodipodi:docname="1F4F2.svg"
   inkscape:version="0.92.4 (5da689c313, 2019-01-14)"
   inkscape:export-filename="D:\tmp\ic_launcher.png"
   inkscape:export-xdpi="256"
   inkscape:export-ydpi="256">
  <metadata
     id="metadata28">
    <rdf:RDF>
      <cc:Work
         rdf:about="">
        <dc:format>image/svg+xml</dc:format>
        <dc:type
           rdf:resource="http://purl.org/dc/dcmitype/StillImage" />
      </cc:Work>
    </rdf:RDF>
  </metadata>
  <defs
     id="defs26" />
  <sodipodi:namedview
     pagecolor="#ffffff"
     bordercolor="#666666"
     borderopacity="1"
     objecttolerance="10"
     gridtolerance="10"
     guidetolerance="10"
     inkscape:pageopacity="0"
     inkscape:pageshadow="2"
     inkscape:window-width="1920"
     inkscape:window-height="1013"
     id="namedview24"
     showgrid="false"
     inkscape:zoom="3.2777778"
     inkscape:cx="-78.711864"
     inkscape:cy="36"
     inkscape:window-x="-9"
     inkscape:window-y="-9"
     inkscape:window-maximized="1"
     inkscape:current-layer="emoji" />
  <rect
     style="fill:#008577;fill-opacity:1;stroke:none;stroke-width:3.76581597;stroke-linecap:round;stroke-linejoin:round;stroke-miterlimit:4;stroke-dasharray:none;stroke-dashoffset:0;stroke-opacity:1;paint-order:normal"
     id="rect838"
     width="72"
     height="72"
     x="0"
     y="-6.1617378e-15"
     ry="11.853659" />
  <g
     id="color"
     transform="matrix(0.71861802,0,0,0.71861802,14.188292,10.382919)">
    <path
       stroke-miterlimit="10"
       d="M 54.0698,59 H 27.6801 c -0.4447,0 -0.8052,-0.3605 -0.8052,-0.8052 V 12.8052 C 26.8749,12.3605 27.2354,12 27.6801,12 h 26.3897 c 0.4446,0 0.8051,0.3605 0.8051,0.8052 V 58.1948 C 54.8749,58.6395 54.5144,59 54.0698,59 Z"
       id="path2"
       inkscape:connector-curvature="0"
       style="fill:#9b9b9a;stroke:none;stroke-width:2;stroke-linecap:round;stroke-linejoin:round;stroke-miterlimit:10" />
    <path
       stroke-miterlimit="10"
       d="M 50.5937,52.053 H 31.1561 c -0.4314,0 -0.7812,-0.3498 -0.7812,-0.7812 V 18.8342 c 0,-0.4315 0.3498,-0.7812 0.7812,-0.7812 h 19.4376 c 0.4315,0 0.7812,0.3497 0.7812,0.7812 v 32.4376 c 0,0.4314 -0.3497,0.7812 -0.7812,0.7812 z"
       id="path4"
       style="fill:#ffedc9;fill-opacity:1;stroke:none;stroke-width:2;stroke-linecap:round;stroke-linejoin:round;stroke-miterlimit:10"
       inkscape:connector-curvature="0" />
    <polygon
       stroke-miterlimit="10"
       points="45,15 37,15 "
       id="polygon6"
       style="fill:#ffffff;stroke:none;stroke-width:2;stroke-linecap:round;stroke-linejoin:round;stroke-miterlimit:10" />
  </g>
  <g
     id="hair" />
  <g
     id="skin" />
  <g
     id="skin-shadow" />
  <g
     id="line"
     transform="matrix(0.71861802,0,0,0.71861802,14.188292,10.382919)">
    <path
       stroke-miterlimit="10"
       d="M 54.0698,59 H 27.6801 c -0.4447,0 -0.8052,-0.3605 -0.8052,-0.8052 V 12.8052 C 26.8749,12.3605 27.2354,12 27.6801,12 h 26.3897 c 0.4446,0 0.8051,0.3605 0.8051,0.8052 V 58.1948 C 54.8749,58.6395 54.5144,59 54.0698,59 Z"
       id="path12"
       style="fill:none;fill-opacity:1;stroke:#000000;stroke-width:2;stroke-linecap:round;stroke-linejoin:round;stroke-miterlimit:10"
       inkscape:connector-curvature="0" />
    <path
       stroke-miterlimit="10"
       d="M 50.5937,52.053 H 31.1561 c -0.4314,0 -0.7812,-0.3498 -0.7812,-0.7812 V 18.8342 c 0,-0.4315 0.3498,-0.7812 0.7812,-0.7812 h 19.4376 c 0.4315,0 0.7812,0.3497 0.7812,0.7812 v 32.4376 c 0,0.4314 -0.3497,0.7812 -0.7812,0.7812 z"
       id="path14"
       inkscape:connector-curvature="0"
       style="fill:none;stroke:#000000;stroke-width:2;stroke-linecap:round;stroke-linejoin:round;stroke-miterlimit:10" />
    <circle
       cx="41"
       cy="55.5"
       r="1.5"
       stroke-miterlimit="10"
       id="circle16"
       style="fill:#000000;stroke:#000000;stroke-miterlimit:10" />
    <polygon
       stroke-miterlimit="10"
       points="45,15 37,15 "
       id="polygon18"
       style="fill:none;stroke:#000000;stroke-width:2;stroke-linecap:round;stroke-linejoin:round;stroke-miterlimit:10" />
    <path
       stroke-miterlimit="10"
       d="M 16.5297,42.7513 17.6409,44 25.5,35.5029 17.6351,27 16.53,28.2401 l 5.1655,5.55 c 0.1464,0.1573 0.1693,0.4427 0.051,0.6374 -0.0646,0.1065 -0.1621,0.1685 -0.265,0.1685 H 6.5 v 1.813 h 14.9675 c 0.1882,1e-4 0.3407,0.203 0.3407,0.4534 0,0.1369 -0.0466,0.2664 -0.1267,0.3525 z"
       id="path20"
       inkscape:connector-curvature="0"
       style="fill:#000000;stroke:#000000;stroke-miterlimit:10" />
  </g>
</svg>
